<?xml version="1.0" standalone="no"?>
<!DOCTYPE svg PUBLIC "-//W3C//DTD SVG 20010904//EN"
 "http://www.w3.org/TR/2001/REC-SVG-20010904/DTD/svg10.dtd">
<svg version="1.0" xmlns="http://www.w3.org/2000/svg"
 width="1000.000000pt" height="1000.000000pt" viewBox="0 0 1000.000000 1000.000000"
 preserveAspectRatio="xMidYMid meet">
<metadata>
Created by potrace 1.14, written by Peter Selinger 2001-2017
</metadata>
<g transform="translate(0.000000,1000.000000) scale(0.100000,-0.100000)"
fill="#000000" stroke="none">
<path d="M3397 8974 c-1 -1 -33 -5 -72 -8 -136 -12 -183 -19 -289 -42 -39 -8
-82 -17 -96 -20 -14 -3 -41 -10 -60 -16 -19 -7 -39 -13 -45 -14 -24 -4 -176
-59 -240 -86 -154 -66 -344 -171 -367 -203 -4 -5 -8 -7 -8 -2 0 7 -134 -93
-205 -153 -50 -42 -247 -242 -290 -294 -62 -74 -184 -250 -185 -263 0 -7 -5
-13 -11 -13 -5 0 -8 -4 -5 -9 4 -5 3 -11 -1 -13 -12 -5 -107 -182 -118 -218
-1 -3 -6 -16 -12 -30 -50 -117 -109 -291 -104 -307 0 -2 -6 -21 -14 -43 -8
-22 -12 -40 -9 -40 2 0 0 -8 -5 -18 -5 -10 -12 -38 -15 -62 -3 -25 -10 -72
-16 -105 -31 -181 -33 -465 -5 -670 11 -76 13 -90 25 -145 7 -30 13 -62 14
-70 2 -8 9 -35 16 -60 7 -25 14 -49 16 -55 16 -66 98 -278 120 -312 8 -13 12
-23 9 -23 -3 0 5 -17 18 -37 12 -21 29 -51 37 -68 34 -69 78 -134 85 -127 5 4
5 2 2 -5 -4 -6 9 -32 28 -57 19 -26 35 -48 35 -51 0 -3 8 -14 18 -26 9 -11 25
-30 35 -42 65 -81 102 -123 181 -204 49 -51 94 -90 99 -86 6 3 7 1 4 -4 -4 -6
0 -16 8 -23 8 -7 15 -10 15 -7 0 3 12 -7 28 -21 15 -15 45 -41 66 -57 21 -17
44 -35 50 -40 23 -22 223 -150 241 -155 6 -1 21 -10 35 -19 37 -26 177 -90
240 -111 14 -5 55 -20 93 -34 37 -14 71 -25 75 -26 4 0 29 -7 56 -15 41 -12
92 -24 217 -50 9 -2 40 -6 70 -10 30 -4 56 -8 59 -10 21 -13 341 -21 455 -11
107 9 190 18 196 22 4 2 28 6 55 9 26 4 52 9 56 12 5 2 19 6 31 7 36 4 236 66
315 97 40 16 75 29 77 29 3 0 11 -16 19 -35 l15 -34 58 25 c32 14 61 30 64 36
3 5 8 8 11 6 7 -6 128 63 128 73 0 6 4 8 9 4 5 -3 16 2 24 10 9 8 18 15 21 15
12 0 116 73 116 81 0 5 6 9 14 9 7 0 25 11 40 25 15 14 30 25 33 25 7 0 16
-10 143 -150 41 -45 92 -101 112 -124 21 -22 38 -44 38 -47 0 -4 -15 -19 -34
-34 -26 -21 -33 -33 -30 -52 6 -33 54 -104 65 -97 5 3 8 1 7 -4 -2 -5 35 -51
82 -102 47 -51 90 -98 95 -104 6 -7 35 -39 65 -71 30 -33 89 -98 130 -144 41
-46 86 -96 100 -111 14 -15 59 -64 100 -110 41 -45 101 -110 133 -144 31 -33
57 -64 57 -68 0 -5 7 -8 15 -8 8 0 14 -4 12 -8 -2 -7 83 -105 193 -222 19 -20
51 -55 70 -76 126 -141 211 -234 247 -274 24 -25 43 -48 43 -52 0 -5 7 -8 15
-8 8 0 14 -4 12 -9 -1 -5 13 -24 31 -42 18 -19 47 -50 65 -70 18 -19 66 -73
107 -119 41 -46 90 -98 108 -117 18 -18 31 -33 29 -33 -2 0 14 -19 37 -43 78
-81 211 -229 219 -243 5 -8 13 -11 19 -8 6 4 8 3 5 -3 -4 -6 9 -25 28 -42 20
-17 33 -31 29 -31 -4 0 6 -13 22 -28 16 -15 61 -63 99 -107 39 -43 81 -90 95
-105 14 -14 42 -44 62 -67 20 -23 39 -39 42 -35 3 3 6 -1 6 -9 0 -8 8 -21 18
-30 9 -8 42 -44 72 -78 30 -35 71 -80 90 -100 19 -21 71 -77 115 -126 153
-170 180 -198 213 -212 36 -15 27 -19 105 52 12 11 67 61 122 110 54 50 122
111 149 137 28 26 54 48 58 48 4 0 -1 18 -11 40 -18 42 -79 115 -191 231 -36
38 -67 72 -69 76 -2 4 -43 51 -91 103 -49 52 -97 105 -108 117 -10 13 -57 64
-104 115 -46 51 -111 122 -143 158 -33 36 -76 83 -96 105 -20 22 -47 51 -59
65 -12 14 -18 18 -14 10 4 -9 3 -12 -2 -7 -5 5 -9 12 -9 16 0 14 -79 100 -87
95 -5 -3 -7 -1 -6 4 4 11 -183 218 -194 214 -4 -1 -7 2 -6 6 3 9 -73 96 -297
338 -11 12 -31 35 -45 52 -14 17 -31 31 -37 32 -7 0 -12 4 -10 9 2 7 -71 91
-193 221 -25 26 -56 61 -69 76 -49 59 -111 123 -112 116 0 -4 -4 3 -10 16 -5
13 -13 20 -19 17 -6 -4 -9 -2 -8 3 3 8 -63 84 -172 202 -19 21 -49 53 -65 71
-119 132 -140 154 -148 151 -5 -1 -6 1 -3 6 2 4 -21 35 -52 68 -31 33 -91 98
-132 144 -41 46 -91 100 -110 121 -19 20 -48 53 -64 72 -17 20 -34 33 -39 30
-6 -3 -7 -2 -4 3 3 6 -21 38 -53 72 -32 34 -62 67 -67 74 -4 7 -27 23 -50 36
l-42 22 -15 -22 c-9 -12 -16 -18 -16 -13 0 4 -10 -1 -23 -13 l-22 -21 -60 66
c-33 36 -73 81 -90 98 -16 18 -46 51 -65 73 -19 22 -39 38 -45 35 -5 -4 -7 -2
-2 2 4 5 -2 18 -12 29 -20 21 -20 21 34 79 29 31 68 76 87 100 18 23 38 48 45
55 7 8 10 18 7 24 -4 6 -3 8 2 5 5 -3 20 11 33 31 13 20 36 55 51 77 15 22 42
64 58 92 l31 53 -29 15 c-17 9 -30 20 -30 25 0 18 23 60 33 60 6 0 7 3 4 6 -4
4 2 23 13 43 53 100 132 308 147 390 2 13 9 33 14 43 6 11 8 26 5 33 -3 8 -1
17 3 19 7 5 17 46 26 106 1 8 5 40 10 70 4 30 9 64 11 75 18 87 17 376 -1 525
-2 19 -6 55 -9 80 -5 40 -37 190 -52 245 -3 11 -7 30 -10 43 -19 91 -178 466
-205 483 -6 3 -10 9 -9 13 3 10 -83 146 -139 221 -84 112 -170 212 -248 287
-110 107 -310 268 -332 268 -6 0 -11 4 -11 8 0 5 -12 15 -27 23 -16 8 -46 26
-68 40 -51 34 -274 146 -305 154 -3 1 -13 5 -22 8 -10 4 -26 10 -35 14 -10 3
-20 7 -23 8 -3 1 -13 5 -22 9 -9 4 -22 8 -30 10 -7 1 -17 4 -23 8 -19 11 -306
80 -312 74 -3 -3 -13 -1 -22 3 -30 16 -208 32 -379 34 -57 1 -104 1 -105 1z"/>
</g>
</svg>
